<svg width="40" height="40" viewBox="0 0 40 40" xmlns="http://www.w3.org/2000/svg">
  <!-- Background -->
  <rect width="40" height="40" rx="8" fill="#1B1C17"/>
  
  <!-- Leaf stem -->
  <path d="M20 6C14 15 14 28 20 34" stroke="#516600" stroke-width="1.5" stroke-linecap="round"/>
  
  <!-- Geometric leaf elements -->
  <path d="M20 10C12 14 12 22 20 26" fill="#3C4D00" stroke="#B7D167" stroke-width="0.8" stroke-linecap="round"/>
  <path d="M20 14C16 16 16 20 20 22" fill="#D3EE80" stroke="#B7D167" stroke-width="0.8" stroke-linecap="round"/>
  
  <!-- Mirrored leaf elements -->
  <path d="M20 10C28 14 28 22 20 26" fill="#3C4D00" stroke="#B7D167" stroke-width="0.8" stroke-linecap="round"/>
  <path d="M20 14C24 16 24 20 20 22" fill="#A1D0C6" stroke="#B7D167" stroke-width="0.8" stroke-linecap="round"/>
  
  <!-- Central accent -->
  <circle cx="20" cy="20" r="2" fill="#B7D167"/>
  
  <!-- Futuristic elements -->
  <path d="M15 28L25 28" stroke="#A1D0C6" stroke-width="1.2" stroke-linecap="round"/>
  <path d="M17 30L23 30" stroke="#B7D167" stroke-width="1" stroke-linecap="round"/>
  <path d="M19 32L21 32" stroke="#D3EE80" stroke-width="0.8" stroke-linecap="round"/>
  
  <!-- Abstract tech elements -->
  <circle cx="12" cy="12" r="1" fill="#D3EE80" opacity="0.8"/>
  <circle cx="28" cy="12" r="1" fill="#D3EE80" opacity="0.8"/>
  <circle cx="10" cy="20" r="0.8" fill="#A1D0C6" opacity="0.7"/>
  <circle cx="30" cy="20" r="0.8" fill="#A1D0C6" opacity="0.7"/>
</svg>